<?xml version="1.0" encoding="utf-8"?>
<!-- Generator: Adobe Illustrator 24.0.2, SVG Export Plug-In . SVG Version: 6.00 Build 0)  -->
<svg version="1.1" xmlns="http://www.w3.org/2000/svg" xmlns:xlink="http://www.w3.org/1999/xlink" x="0px" y="0px"
	 viewBox="0 0 24 24" style="enable-background:new 0 0 24 24;" xml:space="preserve">
<style type="text/css">
	.st0{fill:none;}
	.st1{fill:#121331;}
</style>
<g id="bounding_box">
	<rect class="st0" width="24" height="24"/>
</g>
<g id="design">
	<g>
		<path class="st1" d="M19.25,10H18V7.75C18,4.58,15.42,2,12.25,2h-0.5C8.58,2,6,4.58,6,7.75V10H4.75C4.34,10,4,10.34,4,10.75v8.5
			C4,20.77,5.23,22,6.75,22h10.5c1.52,0,2.75-1.23,2.75-2.75v-8.5C20,10.34,19.66,10,19.25,10z M7.5,7.75
			c0-2.34,1.91-4.25,4.25-4.25h0.5c2.34,0,4.25,1.91,4.25,4.25V10h-9V7.75z M18.5,19.25c0,0.69-0.56,1.25-1.25,1.25H6.75
			c-0.69,0-1.25-0.56-1.25-1.25V11.5h13V19.25z"/>
		<path class="st1" d="M13.25,15c0,0.17-0.03,0.33-0.09,0.48c-0.07,0.15-0.16,0.29-0.28,0.4c-0.04,0.04-0.08,0.08-0.13,0.12v1.29
			c0,0.42-0.34,0.75-0.75,0.75s-0.75-0.33-0.75-0.75V16c-0.05-0.04-0.09-0.08-0.13-0.12c-0.12-0.11-0.21-0.25-0.28-0.4
			c-0.06-0.15-0.09-0.31-0.09-0.48c0-0.08,0.01-0.16,0.02-0.24c0.02-0.08,0.04-0.16,0.08-0.24c0.03-0.07,0.07-0.15,0.11-0.21
			c0.05-0.07,0.1-0.14,0.16-0.19c0.05-0.06,0.12-0.11,0.19-0.16c0.06-0.04,0.14-0.08,0.21-0.11c0.08-0.04,0.16-0.06,0.24-0.08
			c0.4-0.07,0.84,0.06,1.12,0.35C13.12,14.35,13.25,14.67,13.25,15z"/>
	</g>
</g>
</svg>
